<?xml version="1.0" encoding="iso-8859-1"?>
<!-- Generator: Adobe Illustrator 19.0.0, SVG Export Plug-In . SVG Version: 6.00 Build 0)  -->
<svg version="1.1" id="Capa_1" xmlns="http://www.w3.org/2000/svg" xmlns:xlink="http://www.w3.org/1999/xlink" x="0px" y="0px"
	 viewBox="0 0 511.984 511.984" style="enable-background:new 0 0 511.984 511.984;" xml:space="preserve">
<path style="fill:#A0D468;" d="M287.273,74.115c-6.242,6.32-16.32,6.32-22.562,0c-6.32-6.242-6.32-16.32,0-22.562
	c6.242-6.32,33.28-23.273,39.601-17.039C310.554,40.835,293.593,67.873,287.273,74.115z"/>
<g style="opacity:0.2;">
	<path d="M304.311,34.514c-1.711-1.695-4.984-1.641-8.93-0.594c0.328,0.18,0.672,0.344,0.93,0.594
		c6.242,6.32-10.718,33.358-17.038,39.601c-2.094,2.117-4.625,3.46-7.281,4.156c5.289,1.391,11.125,0.055,15.281-4.156
		C293.593,67.873,310.554,40.835,304.311,34.514z"/>
</g>
<g style="opacity:0.4;">
	<path style="fill:#FFFFFF;" d="M272.711,74.115c-6.32-6.242-6.32-16.32,0-22.562c4.547-4.602,20.108-14.812,30.671-17.632
		c-7.609-4.219-32.687,11.57-38.671,17.632c-6.32,6.242-6.32,16.32,0,22.562c4.156,4.21,9.992,5.546,15.281,4.156
		C277.336,77.575,274.804,76.232,272.711,74.115z"/>
</g>
<path style="fill:#ED5564;" d="M256.07,101.872c23.359-13.68,75.92-14,75.92,60.639c0,56.959-49.678,76.802-75.92,65.123h-0.156
	c-26.241,11.679-75.919-8.164-75.919-65.123c0-74.639,52.557-74.318,75.919-60.639H256.07z"/>
<g style="opacity:0.2;">
	<path d="M274.984,95.505c20.882,3.375,41.006,20.819,41.006,67.006c0,41.827-26.779,63.568-51.404,67.576
		c27.18,4.812,67.404-16.289,67.404-67.576C331.99,104.364,300.124,91.794,274.984,95.505z"/>
</g>
<g style="opacity:0.3;">
	<path style="fill:#FFFFFF;" d="M195.994,162.511c0-46.187,20.129-63.631,41.007-67.006c-25.14-3.711-57.006,8.859-57.006,67.006
		c0,51.287,40.225,72.389,67.404,67.576C222.774,226.079,195.994,204.337,195.994,162.511z"/>
</g>
<polygon style="fill:#ED5564;" points="75.998,414.823 131.996,414.823 131.996,446.822 103.997,438.822 75.998,446.822 "/>
<path style="fill:#5D9CEC;" d="M507.984,478.821H63.998C30.878,478.821,4,451.939,4,418.823s26.878-59.998,59.998-59.998h443.986
	v15.999h-7.999H63.998c-24.319,0-43.998,19.68-43.998,43.999s19.679,43.999,43.998,43.999h435.987h7.999L507.984,478.821
	L507.984,478.821z"/>
<g style="opacity:0.3;">
	<path style="fill:#FFFFFF;" d="M12,418.823c0-33.116,26.878-59.998,59.998-59.998h-8C30.878,358.825,4,385.707,4,418.823
		s26.878,59.998,59.998,59.998h8C38.878,478.821,12,451.939,12,418.823z"/>
</g>
<path style="fill:#E6E9ED;" d="M131.996,446.822v-31.999H75.998v31.999l27.999-8L131.996,446.822z M63.998,374.824h435.987v8v71.998
	v8H63.998c-24.319,0-43.998-19.68-43.998-43.999S39.679,374.824,63.998,374.824z"/>
<g style="opacity:0.2;">
	<path d="M27.999,418.823c0-24.319,19.68-43.999,43.999-43.999h-8c-24.319,0-43.998,19.68-43.998,43.999
		s19.679,43.999,43.998,43.999h8C47.679,462.822,27.999,443.142,27.999,418.823z"/>
</g>
<path style="fill:#48CFAD;" d="M92.235,326.826h143.758h223.993h8v15.999H91.997c-26.479,0-47.998-21.522-47.998-47.998
	s21.519-47.999,47.998-47.999h375.989v16h-8H299.991H92.235h-0.238c-17.679,0-31.999,14.319-31.999,31.999
	c0,17.679,14.32,31.999,31.999,31.999H92.235z"/>
<g style="opacity:0.3;">
	<path style="fill:#FFFFFF;" d="M51.999,294.827c0-26.476,21.519-47.999,47.998-47.999h-8c-26.479,0-47.998,21.523-47.998,47.999
		s21.519,47.998,47.998,47.998h8C73.517,342.825,51.999,321.303,51.999,294.827z"/>
</g>
<path style="fill:#E6E9ED;" d="M299.991,262.828H92.235h-0.238c-17.679,0-31.999,14.319-31.999,31.999
	c0,17.679,14.32,31.999,31.999,31.999h0.238h143.758h223.993v-8v-47.998v-8H299.991z"/>
<g style="opacity:0.2;">
	<path d="M67.998,294.827c0-17.68,14.32-31.999,31.999-31.999h-7.762h-0.238c-17.679,0-31.999,14.319-31.999,31.999
		c0,17.679,14.32,31.999,31.999,31.999h0.238h7.762C82.318,326.826,67.998,312.506,67.998,294.827z"/>
</g>
<g>
	<path style="fill:#3A3847;" d="M239.677,234.86c-10.926,0-22.612-3.453-32.804-10.07c-11.531-7.492-30.878-25.546-30.878-62.279
		c0-40.64,15.331-57.967,28.19-65.334c18.015-10.328,39.976-6.812,53.748,1.242c1.906,1.117,2.547,3.57,1.434,5.477
		c-1.121,1.906-3.574,2.539-5.473,1.43c-11.397-6.672-30.573-9.906-45.729-1.211c-15.812,9.062-24.171,29.257-24.171,58.396
		c0,32.96,17.065,48.959,27.237,55.568c13.69,8.891,30.987,11.266,43.057,5.898c2.027-0.883,4.383,0.008,5.281,2.031
		c0.895,2.016-0.012,4.383-2.031,5.281C252.144,233.688,246.04,234.86,239.677,234.86z"/>
	<path style="fill:#3A3847;" d="M272.304,234.86c-6.359,0-12.465-1.172-17.859-3.57c-2.02-0.898-2.925-3.266-2.031-5.281
		c0.902-2.023,3.273-2.914,5.281-2.031c12.062,5.367,29.359,2.992,43.062-5.898c10.172-6.609,27.233-22.608,27.233-55.568
		c0-29.14-8.359-49.334-24.171-58.396c-15.155-8.695-34.327-5.461-45.729,1.211c-1.898,1.109-4.355,0.477-5.473-1.43
		c-1.112-1.906-0.473-4.359,1.434-5.477c13.77-8.055,35.738-11.57,53.753-1.242c12.858,7.367,28.187,24.694,28.187,65.334
		c0,36.733-19.344,54.787-30.874,62.279C294.929,231.407,283.226,234.86,272.304,234.86z"/>
	<path style="fill:#3A3847;" d="M255.91,90.833c-1.926,0-3.625-1.391-3.944-3.352c-3.469-21.241-24.359-28.554-25.246-28.851
		c-2.09-0.711-3.215-2.977-2.512-5.07c0.699-2.085,2.945-3.21,5.051-2.515c1.074,0.352,26.339,9.062,30.604,35.147
		c0.355,2.18-1.125,4.234-3.305,4.594C256.34,90.817,256.125,90.833,255.91,90.833z"/>
	<path style="fill:#3A3847;" d="M507.984,362.825H63.998c-2.211,0-4-1.789-4-4s1.789-4,4-4h443.986c2.211,0,4,1.789,4,4
		S510.195,362.825,507.984,362.825z"/>
	<path style="fill:#3A3847;" d="M507.984,482.821H63.998c-2.211,0-4-1.789-4-4s1.789-4,4-4h443.986c2.211,0,4,1.789,4,4
		S510.195,482.821,507.984,482.821z"/>
	<path style="fill:#3A3847;" d="M63.998,482.821C28.71,482.821,0,454.111,0,418.823s28.71-63.998,63.998-63.998c2.211,0,4,1.789,4,4
		s-1.789,4-4,4C33.12,362.825,8,387.949,8,418.823s25.12,55.998,55.998,55.998c2.211,0,4,1.789,4,4S66.209,482.821,63.998,482.821z"
		/>
	<path style="fill:#3A3847;" d="M63.998,466.822C37.53,466.822,16,445.291,16,418.823s21.53-47.999,47.998-47.999
		c2.211,0,4,1.789,4,4s-1.789,4-4,4C41.944,378.824,24,396.769,24,418.823s17.944,39.999,39.998,39.999c2.211,0,4,1.789,4,4
		S66.209,466.822,63.998,466.822z"/>
	<path style="fill:#3A3847;" d="M507.984,378.824H63.998c-2.211,0-4-1.789-4-4s1.789-4,4-4h443.986c2.211,0,4,1.789,4,4
		S510.195,378.824,507.984,378.824z"/>
	<path style="fill:#3A3847;" d="M507.984,378.824c-2.21,0-3.999-1.789-3.999-4v-15.999c0-2.211,1.789-4,3.999-4c2.211,0,4,1.789,4,4
		v15.999C511.984,377.035,510.195,378.824,507.984,378.824z"/>
	<path style="fill:#3A3847;" d="M507.984,466.822H63.998c-2.211,0-4-1.789-4-4s1.789-4,4-4h443.986c2.211,0,4,1.789,4,4
		S510.195,466.822,507.984,466.822z"/>
	<path style="fill:#3A3847;" d="M507.984,482.821c-2.21,0-3.999-1.789-3.999-4v-15.999c0-2.211,1.789-4,3.999-4c2.211,0,4,1.789,4,4
		v15.999C511.984,481.032,510.195,482.821,507.984,482.821z"/>
	<path style="fill:#3A3847;" d="M499.985,458.822c-2.211,0-4-1.789-4-4v-71.998c0-2.211,1.789-4,4-4s4,1.789,4,4v71.998
		C503.985,457.033,502.196,458.822,499.985,458.822z"/>
	<path style="fill:#3A3847;" d="M395.988,402.824H259.992c-2.211,0-4-1.789-4-4s1.789-4,4-4h135.996c2.211,0,4,1.789,4,4
		S398.199,402.824,395.988,402.824z"/>
	<path style="fill:#3A3847;" d="M323.99,434.822H187.994c-2.21,0-3.999-1.789-3.999-4s1.789-3.999,3.999-3.999H323.99
		c2.211,0,4,1.788,4,3.999S326.201,434.822,323.99,434.822z"/>
	<path style="fill:#3A3847;" d="M475.986,450.822h-79.998c-2.211,0-4-1.789-4-4s1.789-4,4-4h79.998c2.211,0,4,1.789,4,4
		S478.197,450.822,475.986,450.822z"/>
	<path style="fill:#3A3847;" d="M139.996,418.823H67.998c-2.211,0-4-1.789-4-4s1.789-4,4-4h71.998c2.211,0,4,1.789,4,4
		S142.207,418.823,139.996,418.823z"/>
	<path style="fill:#3A3847;" d="M75.998,450.822c-2.211,0-4-1.789-4-4v-31.999c0-2.211,1.789-4,4-4s4,1.789,4,4v31.999
		C79.998,449.033,78.209,450.822,75.998,450.822z"/>
	<path style="fill:#3A3847;" d="M131.996,450.822c-2.211,0-4-1.789-4-4v-31.999c0-2.211,1.789-4,4-4s4,1.789,4,4v31.999
		C135.996,449.033,134.207,450.822,131.996,450.822z"/>
	<path style="fill:#3A3847;" d="M75.994,450.822c-1.738,0-3.34-1.141-3.844-2.898c-0.605-2.125,0.625-4.344,2.75-4.945l27.999-8
		c2.102-0.633,4.336,0.617,4.945,2.742c0.605,2.125-0.625,4.344-2.75,4.945l-27.999,8C76.728,450.775,76.361,450.822,75.994,450.822
		z"/>
	<path style="fill:#3A3847;" d="M132,450.822c-0.367,0-0.734-0.047-1.102-0.156l-27.999-8c-2.125-0.602-3.355-2.82-2.75-4.945
		c0.609-2.133,2.832-3.383,4.945-2.742l27.999,8c2.125,0.602,3.355,2.82,2.75,4.945C135.34,449.681,133.738,450.822,132,450.822z"/>
	<path style="fill:#3A3847;" d="M467.986,250.828H91.997c-2.21,0-3.999-1.789-3.999-4s1.789-4,3.999-4h375.989c2.211,0,4,1.789,4,4
		S470.197,250.828,467.986,250.828z"/>
	<path style="fill:#3A3847;" d="M467.986,346.825H91.997c-2.21,0-3.999-1.789-3.999-4s1.789-3.999,3.999-3.999h375.989
		c2.211,0,4,1.788,4,3.999S470.197,346.825,467.986,346.825z"/>
	<path style="fill:#3A3847;" d="M467.986,266.828H92.235c-2.21,0-3.999-1.789-3.999-4s1.789-4,3.999-4h375.751c2.211,0,4,1.789,4,4
		S470.197,266.828,467.986,266.828z"/>
	<path style="fill:#3A3847;" d="M467.986,266.828c-2.211,0-4-1.789-4-4v-16c0-2.211,1.789-4,4-4s4,1.789,4,4v16
		C471.986,265.039,470.197,266.828,467.986,266.828z"/>
	<path style="fill:#3A3847;" d="M467.986,330.826H92.235c-2.21,0-3.999-1.789-3.999-4s1.789-4,3.999-4h375.751c2.211,0,4,1.789,4,4
		S470.197,330.826,467.986,330.826z"/>
	<path style="fill:#3A3847;" d="M467.986,346.825c-2.211,0-4-1.789-4-4v-15.999c0-2.211,1.789-4,4-4s4,1.789,4,4v15.999
		C471.986,345.036,470.197,346.825,467.986,346.825z"/>
	<path style="fill:#3A3847;" d="M459.986,322.826c-2.211,0-4-1.789-4-4v-47.998c0-2.211,1.789-4,4-4s4,1.789,4,4v47.998
		C463.986,321.037,462.197,322.826,459.986,322.826z"/>
	<path style="fill:#3A3847;" d="M91.997,330.826c-19.851,0-35.998-16.148-35.998-35.999s16.147-35.999,35.998-35.999
		c2.211,0,4,1.789,4,4s-1.789,4-4,4c-15.437,0-27.999,12.562-27.999,27.999c0,15.437,12.562,27.999,27.999,27.999
		c2.211,0,4,1.789,4,4S94.208,330.826,91.997,330.826z"/>
	<path style="fill:#3A3847;" d="M91.997,346.825c-28.671,0-51.998-23.327-51.998-51.998s23.327-51.999,51.998-51.999
		c2.211,0,4,1.789,4,4s-1.789,4-4,4c-24.261,0-43.998,19.742-43.998,43.999s19.737,43.999,43.998,43.999c2.211,0,4,1.788,4,3.999
		S94.208,346.825,91.997,346.825z"/>
	<path style="fill:#3A3847;" d="M171.995,290.827h-63.998c-2.211,0-4-1.789-4-4s1.789-4,4-4h63.998c2.211,0,4,1.789,4,4
		S174.206,290.827,171.995,290.827z"/>
	<path style="fill:#3A3847;" d="M347.99,306.826H235.993c-2.211,0-4-1.789-4-4s1.789-3.999,4-3.999H347.99c2.211,0,4,1.788,4,3.999
		S350.201,306.826,347.99,306.826z"/>
	<path style="fill:#3A3847;" d="M411.988,282.827H299.991c-2.211,0-4-1.789-4-4s1.789-3.999,4-3.999h111.997
		c2.211,0,4,1.788,4,3.999S414.199,282.827,411.988,282.827z"/>
	<path style="fill:#3A3847;" d="M275.992,82.857c-5.328,0-10.352-2.109-14.129-5.93c-3.785-3.742-5.895-8.757-5.895-14.093
		c0-5.328,2.109-10.352,5.93-14.125c5.547-5.617,26.867-19.546,38.272-19.546c2.93,0,5.266,0.844,6.945,2.508
		c9.968,10.086-12.75,41.062-17.03,45.295C286.344,80.747,281.32,82.857,275.992,82.857z M300.171,37.163
		c-8.07,0-27.304,11.828-32.616,17.202c-2.328,2.297-3.586,5.289-3.586,8.469c0,3.18,1.258,6.172,3.555,8.438
		c4.594,4.656,12.375,4.617,16.906,0.031c7.539-7.445,19.624-30.319,17.03-33.983C301.46,37.319,301.163,37.163,300.171,37.163z"/>
</g>
<g style="opacity:0.2;">
	<rect x="459.982" y="246.832" width="8" height="16"/>
</g>
<g style="opacity:0.2;">
	<rect x="459.982" y="326.822" width="8" height="15.999"/>
</g>
<g style="opacity:0.2;">
	<rect x="499.982" y="358.822" width="7.999" height="15.999"/>
</g>
<g style="opacity:0.2;">
	<rect x="499.982" y="462.822" width="7.999" height="15.999"/>
</g>
<g>
</g>
<g>
</g>
<g>
</g>
<g>
</g>
<g>
</g>
<g>
</g>
<g>
</g>
<g>
</g>
<g>
</g>
<g>
</g>
<g>
</g>
<g>
</g>
<g>
</g>
<g>
</g>
<g>
</g>
</svg>
