<?xml version="1.0" encoding="iso-8859-1"?>
<!-- Generator: Adobe Illustrator 19.0.0, SVG Export Plug-In . SVG Version: 6.00 Build 0)  -->
<svg version="1.1" id="Capa_1" xmlns="http://www.w3.org/2000/svg" xmlns:xlink="http://www.w3.org/1999/xlink" x="0px" y="0px"
	 viewBox="0 0 511.985 511.985" style="enable-background:new 0 0 511.985 511.985;" xml:space="preserve">
<path style="fill:#E6E9ED;" d="M131.997,483.986c22.078,0,39.999-17.921,39.999-39.999H419.99h79.996
	c0,22.078-17.92,39.999-39.998,39.999H131.997z"/>
<path style="fill:#FFCE54;" d="M467.987,443.987c0,22.078-17.922,39.999-40,39.999h32c22.078,0,39.998-17.921,39.998-39.999H467.987
	z"/>
<g style="opacity:0.1;">
	<path d="M131.997,483.986c22.078,0,39.999-17.921,39.999-39.999H419.99h79.996c0,22.078-17.92,39.999-39.998,39.999H131.997z"/>
</g>
<path style="fill:#E6E9ED;" d="M131.997,483.986c-22.078,0-39.999-17.921-39.999-39.999V51.999v-8h247.993
	C339.991,21.921,357.911,4,379.989,4s40,17.921,40,39.999v399.988c0,22.078,17.92,39.999,39.998,39.999H131.997z M339.991,451.987
	c17.678,0,31.998-14.32,31.998-31.999s-14.32-31.999-31.998-31.999c-17.68,0-32,14.32-32,31.999S322.311,451.987,339.991,451.987z
	 M355.991,131.997v-24H155.996v24H355.991z"/>
<g>
	<path style="fill:#FFCE54;" d="M419.989,443.987V43.999c0-22.078-17.922-39.999-40-39.999c-5.695,0-11.094,1.23-16,3.383
		c14.109,6.179,24,20.233,24,36.616v399.988c0,22.078,17.922,39.999,39.998,39.999h32
		C437.909,483.986,419.989,466.065,419.989,443.987z"/>
	<path style="fill:#FFCE54;" d="M123.997,443.987V51.999v-8H91.998v8v391.988c0,22.078,17.921,39.999,39.999,39.999h31.999
		C141.918,483.986,123.997,466.065,123.997,443.987z"/>
</g>
<g style="opacity:0.5;">
	<path style="fill:#FFFFFF;" d="M107.997,443.987V51.999v-8h-16v8v391.988c0,22.078,17.921,39.999,39.999,39.999h16
		C125.919,483.986,107.997,466.065,107.997,443.987z"/>
</g>
<path style="fill:#E6E9ED;" d="M379.989,4.001c-22.078,0-39.998,17.921-39.998,39.999H91.998H12
	C12,21.922,29.921,4.001,51.999,4.001C51.999,4.001,379.989,4.001,379.989,4.001z"/>
<g style="opacity:0.2;">
	<path d="M379.989,4.001c-22.078,0-39.998,17.921-39.998,39.999v8c0-22.078,17.92-39.999,39.998-39.999s40,17.921,40,39.999v-8
		C419.989,21.922,402.067,4.001,379.989,4.001z"/>
</g>
<g style="opacity:0.2;">
	<path d="M419.989,443.987V51.999c0-18.789-13.023-34.452-30.5-38.737c8.844,7.328,14.5,18.363,14.5,30.737v399.988
		c0,22.078,17.92,39.999,39.998,39.999h16C437.909,483.986,419.989,466.065,419.989,443.987z"/>
</g>
<polygon style="fill:#ED5565;" points="355.991,443.987 323.991,443.987 323.991,507.985 339.991,499.985 355.991,507.985 "/>
<g style="opacity:0.2;">
	<path d="M323.991,455.55c4.719,2.75,10.141,4.438,16,4.438s11.281-1.688,16-4.438v-11.562h-32V455.55z"/>
</g>
<g style="opacity:0.5;">
	<path style="fill:#FFFFFF;" d="M323.991,455.55v52.436l8-4v-45.093C329.163,458.12,326.475,456.995,323.991,455.55z"/>
</g>
<g style="opacity:0.2;">
	<path d="M355.991,455.55v52.436l-8-4v-45.093C350.819,458.12,353.507,456.995,355.991,455.55z"/>
</g>
<circle style="fill:#ED5565;" cx="339.993" cy="419.993" r="31.999"/>
<g style="opacity:0.5;">
	<path style="fill:#FFFFFF;" d="M315.991,419.988c0-16.296,12.234-29.608,28-31.593c-1.328-0.172-2.625-0.406-4-0.406
		c-17.672,0-32,14.328-32,31.999s14.328,31.999,32,31.999c1.375,0,2.672-0.234,4-0.406
		C328.225,449.597,315.991,436.284,315.991,419.988z"/>
</g>
<g style="opacity:0.2;">
	<path d="M363.989,419.988c0,16.296-12.232,29.608-27.998,31.593c1.328,0.172,2.625,0.406,4,0.406
		c17.67,0,31.998-14.328,31.998-31.999s-14.328-31.999-31.998-31.999c-1.375,0-2.672,0.234-4,0.406
		C351.757,390.38,363.989,403.692,363.989,419.988z"/>
</g>
<path style="fill:#FFCE54;" d="M347.991,419.988c0,4.422-3.578,7.999-8,7.999s-8-3.577-8-7.999s3.578-8,8-8
	S347.991,415.566,347.991,419.988z"/>
<rect x="155.993" y="107.993" style="fill:#ED5565;" width="200" height="24"/>
<g>
	<path style="fill:#FFCE54;" d="M83.998,4.001H51.999C29.921,4.001,12,21.922,12,44h31.999C43.999,21.922,61.921,4.001,83.998,4.001
		z"/>
	<path style="fill:#FFCE54;" d="M379.989,4.001h-31.998c-22.078,0-40,17.921-40,39.999h32
		C339.991,21.922,357.911,4.001,379.989,4.001z"/>
</g>
<g style="opacity:0.2;">
	<rect x="91.993" y="44.003" width="247.99" height="8"/>
</g>
<g style="opacity:0.2;">
	<path d="M499.173,443.987h-15.186c0,12.453-5.828,23.453-14.766,30.788c-2.984,0.711-6.039,1.211-9.234,1.211
		c-19.336,0-35.484-13.749-39.188-31.999h-0.811c0,19.336,13.748,35.483,31.998,39.187c-2.586,0.531-5.258,0.812-8,0.812h16
		c22.078,0,39.998-17.921,39.998-39.999L499.173,443.987L499.173,443.987z"/>
</g>
<g style="opacity:0.2;">
	<path style="fill:#FFFFFF;" d="M379.989,4.001c-22.078,0-39.998,17.921-39.998,39.999H91.998H12
		C12,21.922,29.921,4.001,51.999,4.001C51.999,4.001,379.989,4.001,379.989,4.001z"/>
</g>
<g style="opacity:0.5;">
	<path style="fill:#FFFFFF;" d="M67.999,4.001h-16C29.921,4.001,12,21.922,12,44h16C28,21.922,45.921,4.001,67.999,4.001z"/>
</g>
<g style="opacity:0.2;">
	<path d="M379.989,4.001h-16c-22.076,0-39.998,17.921-39.998,39.999h16C339.991,21.922,357.911,4.001,379.989,4.001z"/>
</g>
<g style="opacity:0.3;">
	<rect x="155.993" y="107.993" style="fill:#FFFFFF;" width="16" height="24"/>
</g>
<g style="opacity:0.2;">
	<rect x="339.993" y="107.993" width="16" height="24"/>
</g>
<g>
	<path style="fill:#3A3847;" d="M12,47.999c-2.211,0-4-1.789-4-4C8,19.738,27.738,0,51.999,0c2.211,0,4,1.789,4,4s-1.789,4-4,4
		C32.148,8,16,24.147,16,43.999C16,46.21,14.211,47.999,12,47.999z"/>
	<path style="fill:#3A3847;" d="M419.989,447.987c-2.211,0-4-1.789-4-4V43.999c0-2.21,1.789-4,4-4c2.209,0,3.998,1.789,3.998,4
		v399.988C423.987,446.198,422.198,447.987,419.989,447.987z"/>
	<path style="fill:#3A3847;" d="M419.989,47.999c-2.211,0-4-1.789-4-4c0-19.851-16.148-35.999-36-35.999c-2.211,0-4-1.789-4-4
		s1.789-4,4-4c24.266,0,43.998,19.738,43.998,43.999C423.987,46.21,422.198,47.999,419.989,47.999z"/>
	<path style="fill:#3A3847;" d="M339.991,47.999c-2.211,0-4-1.789-4-4C335.991,19.738,355.725,0,379.989,0c2.211,0,4,1.789,4,4
		s-1.789,4-4,4c-19.852,0-35.998,16.147-35.998,35.999C343.991,46.21,342.202,47.999,339.991,47.999z"/>
	<path style="fill:#3A3847;" d="M459.987,487.986c-24.266,0-43.998-19.734-43.998-43.999c0-2.211,1.789-4,4-4
		c2.209,0,3.998,1.789,3.998,4c0,19.852,16.148,35.999,36,35.999c2.211,0,4,1.789,4,4S462.198,487.986,459.987,487.986z"/>
	<path style="fill:#3A3847;" d="M131.997,487.986c-24.261,0-43.999-19.734-43.999-43.999c0-2.211,1.789-4,4-4s4,1.789,4,4
		c0,19.852,16.148,35.999,35.999,35.999c2.21,0,4,1.789,4,4S134.207,487.986,131.997,487.986z"/>
	<path style="fill:#3A3847;" d="M459.987,487.986c-2.211,0-4-1.789-4-4s1.789-4,4-4c19.852,0,35.998-16.147,35.998-35.999
		c0-2.211,1.789-4,4-4s4,1.789,4,4C503.985,468.252,484.251,487.986,459.987,487.986z"/>
	<path style="fill:#3A3847;" d="M379.989,8.001H51.999c-2.211,0-4-1.789-4-4s1.789-4,4-4h327.99c2.211,0,4,1.789,4,4
		S382.2,8.001,379.989,8.001z"/>
	<path style="fill:#3A3847;" d="M307.991,487.986H131.997c-2.211,0-4-1.789-4-4s1.789-4,4-4h175.994c2.211,0,4,1.789,4,4
		S310.202,487.986,307.991,487.986z"/>
	<path style="fill:#3A3847;" d="M91.998,447.987c-2.21,0-4-1.789-4-4V51.999c0-2.211,1.789-4,4-4s4,1.789,4,4v391.988
		C95.998,446.198,94.209,447.987,91.998,447.987z"/>
	<path style="fill:#3A3847;" d="M339.991,47.999H12c-2.211,0-4-1.789-4-4c0-2.21,1.789-4,4-4h327.991c2.211,0,4,1.789,4,4
		S342.202,47.999,339.991,47.999z"/>
	<path style="fill:#3A3847;" d="M499.985,447.987h-71.998c-2.211,0-4-1.789-4-4s1.789-4,4-4h71.998c2.211,0,4,1.789,4,4
		S502.196,447.987,499.985,447.987z"/>
	<path style="fill:#3A3847;" d="M339.991,455.987c-19.852,0-36-16.148-36-35.999s16.148-35.999,36-35.999
		c19.85,0,35.998,16.148,35.998,35.999S359.841,455.987,339.991,455.987z M339.991,391.989c-15.438,0-28,12.562-28,27.999
		c0,15.437,12.562,27.999,28,27.999s27.998-12.562,27.998-27.999C367.989,404.551,355.429,391.989,339.991,391.989z"/>
	<path style="fill:#3A3847;" d="M339.991,431.987c-6.617,0-12-5.382-12-11.999s5.383-12,12-12s12,5.383,12,12
		S346.608,431.987,339.991,431.987z M339.991,415.988c-2.203,0-4,1.797-4,4s1.797,4,4,4s4-1.797,4-4
		S342.194,415.988,339.991,415.988z"/>
	<path style="fill:#3A3847;" d="M323.991,511.985c-2.211,0-4-1.789-4-4v-47.998c0-2.211,1.789-4,4-4s4,1.789,4,4v47.998
		C327.991,510.196,326.202,511.985,323.991,511.985z"/>
	<path style="fill:#3A3847;" d="M355.991,511.985c-2.211,0-4-1.789-4-4v-47.998c0-2.211,1.789-4,4-4c2.209,0,3.998,1.789,3.998,4
		v47.998C359.989,510.196,358.2,511.985,355.991,511.985z"/>
	<path style="fill:#3A3847;" d="M323.991,511.985c-1.469,0-2.875-0.812-3.578-2.211c-0.984-1.977-0.188-4.383,1.789-5.367l16-8
		c1.977-0.977,4.383-0.188,5.367,1.789s0.188,4.383-1.789,5.367l-16,8C325.21,511.845,324.6,511.985,323.991,511.985z"/>
	<path style="fill:#3A3847;" d="M355.991,511.985c-0.609,0-1.219-0.141-1.789-0.422l-16-8c-1.977-0.984-2.773-3.391-1.789-5.367
		c0.992-1.977,3.391-2.766,5.367-1.789l15.998,8c1.977,0.984,2.773,3.391,1.789,5.367
		C358.864,511.173,357.458,511.985,355.991,511.985z"/>
	<path style="fill:#3A3847;" d="M459.987,487.986h-87.998c-2.211,0-4-1.789-4-4s1.789-4,4-4h87.998c2.211,0,4,1.789,4,4
		S462.198,487.986,459.987,487.986z"/>
	<path style="fill:#3A3847;" d="M355.991,135.997H155.996c-2.21,0-4-1.789-4-4v-24c0-2.21,1.789-4,4-4h199.995
		c2.209,0,3.998,1.789,3.998,4v24C359.989,134.208,358.2,135.997,355.991,135.997z M159.996,127.997h191.995v-16H159.996V127.997z"
		/>
	<path style="fill:#3A3847;" d="M251.993,415.988h-95.997c-2.21,0-4-1.789-4-4s1.789-4,4-4h95.997c2.211,0,4,1.789,4,4
		S254.204,415.988,251.993,415.988z"/>
	<path style="fill:#3A3847;" d="M203.994,431.987h-47.999c-2.21,0-4-1.789-4-4c0-2.21,1.789-3.999,4-3.999h47.999
		c2.211,0,4,1.789,4,3.999C207.994,430.198,206.205,431.987,203.994,431.987z"/>
	<path style="fill:#3A3847;" d="M355.991,223.994H155.996c-2.21,0-4-1.789-4-4s1.789-4,4-4h199.995c2.209,0,3.998,1.789,3.998,4
		S358.2,223.994,355.991,223.994z"/>
	<path style="fill:#3A3847;" d="M355.991,255.993H155.996c-2.21,0-4-1.789-4-4s1.789-4,4-4h199.995c2.209,0,3.998,1.789,3.998,4
		S358.2,255.993,355.991,255.993z"/>
	<path style="fill:#3A3847;" d="M355.991,287.992H155.996c-2.21,0-4-1.789-4-4s1.789-4,4-4h199.995c2.209,0,3.998,1.789,3.998,4
		S358.2,287.992,355.991,287.992z"/>
	<path style="fill:#3A3847;" d="M251.993,319.991h-95.997c-2.21,0-4-1.789-4-4s1.789-4,4-4h95.997c2.211,0,4,1.789,4,4
		S254.204,319.991,251.993,319.991z"/>
</g>
<g>
</g>
<g>
</g>
<g>
</g>
<g>
</g>
<g>
</g>
<g>
</g>
<g>
</g>
<g>
</g>
<g>
</g>
<g>
</g>
<g>
</g>
<g>
</g>
<g>
</g>
<g>
</g>
<g>
</g>
</svg>
