<?xml version="1.0" encoding="iso-8859-1"?>
<!-- Generator: Adobe Illustrator 19.0.0, SVG Export Plug-In . SVG Version: 6.00 Build 0)  -->
<svg version="1.1" id="Capa_1" xmlns="http://www.w3.org/2000/svg" xmlns:xlink="http://www.w3.org/1999/xlink" x="0px" y="0px"
	 viewBox="0 0 511.985 511.985" style="enable-background:new 0 0 511.985 511.985;" xml:space="preserve">
<path style="fill:#E6E9ED;" d="M87.999,419.988c-13.254,0-24,10.749-24,23.999s10.746,24,24,24h351.989c4.421,0,7.999-3.578,7.999-8
	v-39.999H87.999z"/>
<polygon style="fill:#ED5565;" points="151.997,443.987 151.997,507.985 127.997,499.985 103.998,507.985 103.998,443.987 
	103.998,435.987 151.997,435.987 "/>
<g style="opacity:0.3;">
	<polygon style="fill:#FFFFFF;" points="111.998,443.987 103.998,443.987 103.998,507.985 111.998,505.313 	"/>
</g>
<g style="opacity:0.2;">
	<polygon points="143.997,443.987 151.997,443.987 151.997,507.985 143.997,505.313 	"/>
</g>
<path style="fill:#656D78;" d="M87.999,419.988c-13.281,0-24,10.718-24,23.999V28c0-13.281,10.719-23.999,24-23.999h15.999V28
	v367.989v23.999H87.999z"/>
<g style="opacity:0.3;">
	<path style="fill:#FFFFFF;" d="M79.999,28c0-13.281,10.719-23.999,23.999-23.999H87.999c-13.281,0-24,10.718-24,23.999v415.987
		c0-10.461,6.688-19.233,16-22.53V28z"/>
</g>
<rect x="151.993" y="52.003" style="fill:#656D78;" width="247.99" height="31.999"/>
<g>
	<path style="fill:#EC87C0;" d="M335.835,275.759c-6.641,6.632-15.688,9.194-24.163,7.913h-0.078
		c-0.641,3.836-2.484,7.523-5.445,10.477c-7.836,7.843-20.476,7.843-28.312,0c-3.844-3.836-5.766-8.875-5.844-13.836v-36.32v-55.999
		v-31.999c0-8.878,7.117-16,16-16c8.882,0,15.999,7.121,15.999,16c0,2.238-0.477,4.32-1.281,6.238
		c3.523-3.117,8.164-5.039,13.28-5.039c11.039,0,20,8.961,20,20.082c0,4.078-1.203,7.917-3.359,11.039
		c1.039-0.242,2.242-0.32,3.359-0.32c8.883,0,16,7.121,16,16s-7.117,16-16,16c6.641,0,12,5.359,12,12
		c0,4.96-2.961,9.121-7.203,10.96C346.389,253.513,344.71,266.868,335.835,275.759z"/>
	<path style="fill:#EC87C0;" d="M271.993,243.993v36.319c-0.078,4.961-2,10-5.844,13.836c-7.836,7.843-20.476,7.843-28.315,0
		c-2.961-2.953-4.801-6.641-5.441-10.477h-0.078c-8.479,1.281-17.519-1.281-24.159-7.913c-8.879-8.891-10.559-22.246-4.961-32.804
		c-4.238-1.84-7.199-6-7.199-10.96c0-6.641,5.359-12,12-12c-8.879,0-16-7.121-16-16s7.121-16,16-16c1.121,0,2.32,0.078,3.359,0.32
		c-2.16-3.121-3.359-6.961-3.359-11.039c0-11.121,8.961-20.082,20-20.082c5.12,0,9.761,1.922,13.28,5.039
		c-0.801-1.918-1.281-4-1.281-6.238c0-8.878,7.121-16,15.999-16c8.883,0,16,7.121,16,16v31.999v56H271.993z"/>
</g>
<g style="opacity:0.3;">
	<path style="fill:#FFFFFF;" d="M249.275,162.234c-0.801-1.918-1.281-4-1.281-6.238c0-7.488,5.089-13.671,11.999-15.441
		c-1.285-0.328-2.609-0.559-4-0.559c-8.878,0-15.999,7.121-15.999,16c0,0.578,0.113,1.117,0.176,1.672
		C243.619,158.402,246.744,159.992,249.275,162.234z"/>
	<path style="fill:#FFFFFF;" d="M245.834,294.148c-2.961-2.953-4.801-6.641-5.441-10.477h-0.078
		c-8.48,1.281-17.519-1.281-24.159-7.913c-8.879-8.891-10.559-22.246-4.961-32.804c-4.238-1.84-7.199-6-7.199-10.96
		c0-6.641,5.359-12,12-12c-8.879,0-16-7.121-16-16s7.121-16,16-16c1.121,0,2.32,0.078,3.359,0.32
		c-2.16-3.121-3.359-6.961-3.359-11.039c0-9.726,6.852-17.796,15.956-19.671c-1.281-0.258-2.598-0.41-3.956-0.41
		c-11.039,0-20,8.961-20,20.082c0,4.078,1.199,7.917,3.359,11.039c-1.039-0.242-2.238-0.32-3.359-0.32c-8.879,0-16,7.121-16,16
		s7.121,16,16,16c-6.641,0-12,5.359-12,12c0,4.96,2.961,9.121,7.199,10.96c-5.598,10.558-3.918,23.914,4.961,32.804
		c6.641,6.632,15.68,9.194,24.159,7.913h0.078c0.641,3.836,2.48,7.523,5.441,10.477c4.949,4.953,11.801,6.757,18.159,5.461
		C252.274,298.851,248.728,297.047,245.834,294.148z"/>
</g>
<g style="opacity:0.3;">
	<path d="M294.711,162.234c0.797-1.918,1.281-4,1.281-6.238c0-7.488-5.093-13.671-11.999-15.441c1.281-0.328,2.609-0.559,4-0.559
		c8.874,0,15.999,7.121,15.999,16c0,0.578-0.109,1.117-0.172,1.672C300.367,158.402,297.242,159.992,294.711,162.234z"/>
	<path d="M298.148,294.148c2.969-2.953,4.805-6.641,5.445-10.477h0.078c8.477,1.281,17.522-1.281,24.163-7.913
		c8.875-8.891,10.555-22.246,4.953-32.804c4.242-1.84,7.203-6,7.203-10.96c0-6.641-5.359-12-12-12c8.875,0,16-7.121,16-16
		s-7.125-16-16-16c-1.125,0-2.32,0.078-3.359,0.32c2.156-3.121,3.359-6.961,3.359-11.039c0-9.726-6.852-17.796-15.952-19.671
		c1.281-0.258,2.594-0.41,3.952-0.41c11.039,0,20,8.961,20,20.082c0,4.078-1.203,7.917-3.359,11.039
		c1.039-0.242,2.234-0.32,3.359-0.32c8.875,0,16,7.121,16,16s-7.125,16-16,16c6.641,0,12,5.359,12,12
		c0,4.96-2.961,9.121-7.203,10.96c5.602,10.558,3.922,23.914-4.953,32.804c-6.641,6.632-15.688,9.194-24.163,7.913h-0.078
		c-0.641,3.836-2.477,7.523-5.445,10.477c-4.945,4.953-11.797,6.757-18.155,5.461C291.712,298.851,295.258,297.047,298.148,294.148z
		"/>
</g>
<path style="fill:#AC92EC;" d="M306.148,294.148c2.961-2.953,4.805-6.641,5.445-10.477h0.078c8.476,1.281,17.522-1.281,24.163-7.913
	c8.875-8.891,10.555-22.246,4.953-32.804c4.242-1.84,7.203-6,7.203-10.96c0-6.641-5.359-12-12-12c8.883,0,16-7.121,16-16
	s-7.117-16-16-16c-1.117,0-2.32,0.078-3.359,0.32c2.156-3.121,3.359-6.961,3.359-11.039c0-11.121-8.961-20.082-20-20.082
	c-5.116,0-9.757,1.922-13.28,5.039c0.805-1.918,1.281-4,1.281-6.238c0-8.878-7.117-16-15.999-16c-8.883,0-16,7.121-16,16
	c0-8.878-7.117-16-16-16c-8.878,0-15.999,7.121-15.999,16c0,2.238,0.48,4.32,1.281,6.238c-3.52-3.117-8.16-5.039-13.28-5.039
	c-11.039,0-20,8.961-20,20.082c0,4.078,1.199,7.917,3.359,11.039c-1.039-0.242-2.238-0.32-3.359-0.32c-8.879,0-16,7.121-16,16
	s7.121,16,16,16c-6.641,0-12,5.359-12,12c0,4.96,2.961,9.121,7.199,10.96c-5.598,10.558-3.918,23.914,4.961,32.804
	c6.641,6.632,15.68,9.194,24.159,7.913h0.078c0.641,3.836,2.48,7.523,5.441,10.477c7.84,7.843,20.479,7.843,28.315,0
	c3.844-3.836,5.766-8.875,5.844-13.836c0.078,4.961,2,10,5.844,13.836C285.673,301.991,298.312,301.991,306.148,294.148z
	 M447.987,12v399.988c0,4.398-3.602,8-7.999,8h-335.99v-23.999V28V4.001h335.99C444.386,4.001,447.987,7.602,447.987,12z
	 M399.989,83.998V51.999H151.997v31.999C151.997,83.998,399.989,83.998,399.989,83.998z"/>
<g style="opacity:0.2;">
	<path d="M439.988,4.001h-16c4.398,0,8,3.602,8,8v399.988c0,4.398-3.602,8-8,8h16c4.397,0,7.999-3.602,7.999-8V12
		C447.987,7.602,444.386,4.001,439.988,4.001z"/>
</g>
<g style="opacity:0.3;">
	<path d="M63.999,443.987c0,1.367,0.184,2.688,0.402,3.992c1.91-11.352,11.691-19.992,23.598-19.992h15.999h335.99
		c4.397,0,7.999-3.601,7.999-7.999H87.999C74.745,419.988,63.999,430.737,63.999,443.987z"/>
</g>
<g>
	<path style="fill:#3A3847;" d="M439.988,423.988H87.999c-2.211,0-4-1.789-4-4s1.789-4,4-4h351.989c2.211,0,3.999,1.789,3.999,4
		S442.199,423.988,439.988,423.988z"/>
	<path style="fill:#3A3847;" d="M439.988,8.001H87.999c-2.211,0-4-1.789-4-4s1.789-4,4-4h351.989c2.211,0,3.999,1.789,3.999,4
		S442.199,8.001,439.988,8.001z"/>
	<path style="fill:#3A3847;" d="M87.999,471.986c-15.438,0-28-12.562-28-27.999s12.562-27.999,28-27.999
		c2.211,0,3.999,1.789,3.999,4s-1.788,4-3.999,4c-11.027,0-20,8.968-20,19.999s8.973,20,20,20c2.211,0,3.999,1.789,3.999,4
		C91.998,470.197,90.21,471.986,87.999,471.986z"/>
	<path style="fill:#3A3847;" d="M87.999,455.987c-6.617,0-12-5.383-12-12s5.383-12,12-12c2.211,0,3.999,1.789,3.999,4
		s-1.788,4-3.999,4c-2.207,0-4,1.797-4,4s1.793,4,4,4c2.211,0,3.999,1.789,3.999,4S90.21,455.987,87.999,455.987z"/>
	<path style="fill:#3A3847;" d="M63.999,32c-2.211,0-4-1.789-4-4c0-15.437,12.562-27.999,28-27.999c2.211,0,3.999,1.789,3.999,4
		s-1.788,4-3.999,4c-11.027,0-20,8.972-20,19.999C67.999,30.211,66.21,32,63.999,32z"/>
	<path style="fill:#3A3847;" d="M63.999,447.987c-2.211,0-4-1.789-4-4V28c0-2.211,1.789-4,4-4s4,1.789,4,4v415.987
		C67.999,446.198,66.21,447.987,63.999,447.987z"/>
	<path style="fill:#3A3847;" d="M447.987,16c-2.211,0-4-1.789-4-4c0-2.207-1.796-4-3.999-4c-2.211,0-4-1.789-4-4s1.789-4,4-4
		c6.616,0,11.999,5.383,11.999,12C451.987,14.211,450.198,16,447.987,16z"/>
	<path style="fill:#3A3847;" d="M439.988,423.988c-2.211,0-4-1.789-4-4s1.789-4,4-4c2.203,0,3.999-1.797,3.999-4
		c0-2.211,1.789-4,4-4s4,1.789,4,4C451.987,418.605,446.604,423.988,439.988,423.988z"/>
	<path style="fill:#3A3847;" d="M439.988,471.986H159.996c-2.211,0-4-1.789-4-3.999c0-2.211,1.789-4,4-4h279.992
		c2.211,0,3.999,1.789,3.999,4C443.987,470.197,442.199,471.986,439.988,471.986z"/>
	<path style="fill:#3A3847;" d="M439.988,471.986c-2.211,0-4-1.789-4-3.999c0-2.211,1.789-4,4-4c2.203,0,3.999-1.797,3.999-4
		c0-2.211,1.789-4,4-4s4,1.789,4,4C451.987,466.604,446.604,471.986,439.988,471.986z"/>
	<path style="fill:#3A3847;" d="M447.987,415.988c-2.211,0-4-1.789-4-4V12c0-2.21,1.789-4,4-4s4,1.789,4,4v399.988
		C451.987,414.199,450.198,415.988,447.987,415.988z"/>
	<path style="fill:#3A3847;" d="M447.987,463.987c-2.211,0-4-1.789-4-4v-32c0-2.21,1.789-3.999,4-3.999s4,1.789,4,3.999v32
		C451.987,462.198,450.198,463.987,447.987,463.987z"/>
	<path style="fill:#3A3847;" d="M103.998,415.988c-2.211,0-4-1.789-4-4V12c0-2.21,1.789-4,4-4s4,1.789,4,4v399.988
		C107.998,414.199,106.209,415.988,103.998,415.988z"/>
	<path style="fill:#3A3847;" d="M431.988,455.987H159.996c-2.211,0-4-1.789-4-4s1.789-4,4-4h271.992c2.211,0,4,1.789,4,4
		S434.199,455.987,431.988,455.987z"/>
	<path style="fill:#3A3847;" d="M431.988,439.987H87.999c-2.211,0-4-1.789-4-4s1.789-4,4-4h343.989c2.211,0,4,1.789,4,4
		S434.199,439.987,431.988,439.987z"/>
	<path style="fill:#3A3847;" d="M399.989,87.998H151.997c-2.211,0-4-1.789-4-4V51.999c0-2.211,1.789-4,4-4h247.992
		c2.211,0,4,1.789,4,4v31.999C403.989,86.209,402.2,87.998,399.989,87.998z M155.996,79.998h239.993v-24H155.996V79.998z"/>
	<path style="fill:#3A3847;" d="M359.99,71.999H191.995c-2.211,0-4-1.789-4-4s1.789-4,4-4H359.99c2.211,0,4,1.789,4,4
		S362.201,71.999,359.99,71.999z"/>
	<path style="fill:#3A3847;" d="M359.99,359.99H191.995c-2.211,0-4-1.789-4-4s1.789-4,4-4H359.99c2.211,0,4,1.789,4,4
		S362.201,359.99,359.99,359.99z"/>
	<path style="fill:#3A3847;" d="M311.992,375.989h-71.998c-2.211,0-4-1.789-4-4s1.789-4,4-4h71.998c2.211,0,3.999,1.789,3.999,4
		S314.203,375.989,311.992,375.989z"/>
	<path style="fill:#3A3847;" d="M103.998,511.985c-2.211,0-4-1.789-4-4v-63.998c0-2.211,1.789-4,4-4s4,1.789,4,4v63.998
		C107.998,510.196,106.209,511.985,103.998,511.985z"/>
	<path style="fill:#3A3847;" d="M151.997,511.985c-2.211,0-4-1.789-4-4v-63.998c0-2.211,1.789-4,4-4s3.999,1.789,3.999,4v63.998
		C155.996,510.196,154.208,511.985,151.997,511.985z"/>
	<path style="fill:#3A3847;" d="M103.998,511.985c-1.676,0-3.234-1.062-3.793-2.734c-0.699-2.094,0.434-4.359,2.527-5.062l23.999-8
		c2.121-0.703,4.359,0.438,5.059,2.531s-0.434,4.359-2.527,5.062l-23.999,8C104.842,511.923,104.416,511.985,103.998,511.985z"/>
	<path style="fill:#3A3847;" d="M151.997,511.985c-0.418,0-0.844-0.062-1.266-0.203l-24-8c-2.094-0.703-3.226-2.969-2.527-5.062
		c0.699-2.094,2.949-3.234,5.059-2.531l24,8c2.094,0.703,3.226,2.969,2.527,5.062C155.231,510.923,153.673,511.985,151.997,511.985z
		"/>
	<path style="fill:#3A3847;" d="M127.997,487.986c-2.211,0-4-1.789-4-4v-39.038c0-2.211,1.789-4,4-4s4,1.789,4,4v39.038
		C131.997,486.197,130.208,487.986,127.997,487.986z"/>
	<path style="fill:#3A3847;" d="M251.993,304.03c-6.409,0-12.44-2.508-16.987-7.054c-3.492-3.484-5.762-7.859-6.559-12.641
		c-1.562-7.625,0.879-15.655,6.559-21.331c1.562-1.562,4.094-1.562,5.656,0c1.562,1.566,1.562,4.098,0,5.66
		c-3.773,3.766-5.398,9.077-4.352,14.202c0.551,3.281,2.047,6.148,4.352,8.453c6.07,6.078,16.581,6.078,22.659,0
		c2.945-2.938,4.609-6.875,4.672-11.07c0.031-2.211,1.969-3.805,4.062-3.938c2.211,0.039,3.969,1.852,3.938,4.062
		c-0.102,6.289-2.594,12.188-7.016,16.602C264.431,301.522,258.399,304.03,251.993,304.03z"/>
	<path style="fill:#3A3847;" d="M227.995,201.194c-8.02,0-15.48-3.98-19.961-10.648c-2.633-3.801-4.039-8.406-4.039-13.269
		c0-13.277,10.766-24.082,24-24.082c5.874,0,11.53,2.148,15.933,6.043c1.652,1.465,1.809,3.996,0.344,5.648
		c-1.465,1.656-3.992,1.801-5.648,0.344c-2.938-2.602-6.711-4.035-10.628-4.035c-8.824,0-16,7.215-16,16.082
		c0,3.23,0.914,6.257,2.648,8.761c3.023,4.5,8.004,7.156,13.352,7.156c2.21,0,3.999,1.789,3.999,4S230.205,201.194,227.995,201.194z
		"/>
	<path style="fill:#3A3847;" d="M203.19,246.954c-0.531,0-1.07-0.105-1.59-0.332c-5.836-2.531-9.605-8.273-9.605-14.628
		c0-8.824,7.176-16,16-16c2.211,0,4,1.789,4,4s-1.789,4-4,4c-4.41,0-8,3.59-8,8c0,3.215,1.836,6.007,4.793,7.292
		c2.027,0.879,2.957,3.234,2.074,5.261C206.21,246.055,204.737,246.954,203.19,246.954z"/>
	<path style="fill:#3A3847;" d="M207.995,223.994c-11.027,0-20-8.973-20-20s8.973-20,20-20c1.621,0,3.059,0.145,4.266,0.426
		c2.152,0.5,3.492,2.652,2.988,4.801c-0.504,2.152-2.664,3.465-4.801,2.988c-0.426-0.098-1.191-0.215-2.453-0.215
		c-6.617,0-12,5.383-12,12s5.383,12,12,12c2.211,0,4,1.789,4,4S210.206,223.994,207.995,223.994z"/>
	<path style="fill:#3A3847;" d="M255.993,175.995c-8.093,0-15.319-4.796-18.409-12.222c-1.055-2.523-1.59-5.141-1.59-7.777
		c0-11.027,8.973-19.999,19.999-19.999c11.031,0,20,8.972,20,19.999c0,2.211-1.789,4-4,4s-4-1.789-4-4c0-6.617-5.383-12-12-12
		c-6.616,0-11.999,5.382-11.999,12c0,1.57,0.328,3.152,0.973,4.695c1.848,4.441,6.176,7.305,11.026,7.305c2.211,0,4,1.789,4,4
		C259.993,174.206,258.204,175.995,255.993,175.995z"/>
	<path style="fill:#3A3847;" d="M227.968,288c-8.473,0-16.523-3.305-22.641-9.414c-9.984-9.991-12.262-25.065-5.668-37.506
		c1.527-2.859,3.457-5.468,5.746-7.753c5.996-6.039,13.988-9.379,22.504-9.391c0.02-0.004,0.039-0.004,0.059-0.004
		c8.526,0,16.558,3.336,22.616,9.395c1.562,1.562,1.562,4.093,0,5.656c-1.562,1.562-4.094,1.562-5.656,0
		c-4.547-4.546-10.57-7.05-16.96-7.05c-0.016,0-0.031,0.004-0.043,0.004c-6.371,0.008-12.359,2.508-16.852,7.035
		c-1.738,1.742-3.199,3.711-4.348,5.867c-4.938,9.309-3.227,20.602,4.258,28.094c5.48,5.468,13.051,7.976,20.733,6.78
		c2.203-0.281,4.223,1.18,4.555,3.359c0.328,2.188-1.176,4.227-3.359,4.555C231.256,287.883,229.603,288,227.968,288z"/>
	<path style="fill:#3A3847;" d="M291.993,304.03c-6.406,0-12.438-2.508-16.984-7.054c-4.422-4.414-6.914-10.312-7.016-16.602
		c-0.031-2.211,1.727-4.023,3.938-4.062c2.375,0.07,4.031,1.727,4.062,3.938c0.062,4.195,1.727,8.133,4.672,11.07
		c6.078,6.078,16.577,6.078,22.655,0c2.312-2.305,3.805-5.18,4.328-8.312c1.078-5.266-0.547-10.569-4.328-14.343
		c-1.562-1.562-1.562-4.094,0-5.66c1.562-1.562,4.094-1.562,5.656,0c5.688,5.676,8.132,13.706,6.539,21.472
		c-0.773,4.633-3.047,9.008-6.539,12.5C304.43,301.522,298.398,304.03,291.993,304.03z"/>
	<path style="fill:#3A3847;" d="M315.991,201.194c-2.21,0-3.999-1.789-3.999-4s1.789-4,3.999-4c5.352,0,10.328-2.656,13.32-7.109
		c1.766-2.555,2.68-5.582,2.68-8.808c0-8.867-7.18-16.082-16-16.082c-3.913,0-7.687,1.434-10.632,4.035
		c-1.641,1.453-4.18,1.309-5.641-0.344c-1.469-1.656-1.312-4.184,0.344-5.648c4.406-3.898,10.062-6.043,15.929-6.043
		c13.234,0,24,10.805,24,24.082c0,4.855-1.406,9.46-4.07,13.312C331.468,197.214,324.007,201.194,315.991,201.194z"/>
	<path style="fill:#3A3847;" d="M340.788,246.954c-1.547,0-3.016-0.898-3.672-2.41c-0.875-2.023,0.055-4.378,2.078-5.257
		c2.961-1.285,4.797-4.078,4.797-7.292c0-4.41-3.586-8-8-8c-2.211,0-4-1.789-4-4s1.789-4,4-4c8.82,0,16,7.176,16,16
		c0,6.355-3.773,12.097-9.609,14.628C341.858,246.848,341.319,246.954,340.788,246.954z"/>
	<path style="fill:#3A3847;" d="M335.991,223.994c-2.211,0-4-1.789-4-4s1.789-4,4-4c6.617,0,12-5.382,12-12c0-6.617-5.383-12-12-12
		c-1.258,0-2.031,0.117-2.453,0.215c-2.172,0.508-4.305-0.84-4.805-2.988s0.836-4.301,2.992-4.801
		c1.211-0.281,2.641-0.426,4.266-0.426c11.031,0,20,8.973,20,20S347.022,223.994,335.991,223.994z"/>
	<path style="fill:#3A3847;" d="M287.993,175.995c-2.211,0-4-1.789-4-4c0-2.21,1.789-4,4-4c4.851,0,9.179-2.863,11.022-7.301
		c0.648-1.543,0.977-3.121,0.977-4.699c0-6.617-5.383-12-11.999-12c-6.617,0-12,5.382-12,12c0,2.211-1.789,4-4,4s-4-1.789-4-4
		c0-11.027,8.969-19.999,20-19.999c11.03,0,19.999,8.972,19.999,19.999c0,2.648-0.539,5.266-1.594,7.785
		C303.312,171.199,296.086,175.995,287.993,175.995z"/>
	<path style="fill:#3A3847;" d="M315.859,287.992c-1.594,0-3.188-0.125-4.789-0.367c-2.18-0.328-3.688-2.367-3.352-4.555
		c0.328-2.188,2.367-3.672,4.555-3.359c7.687,1.188,15.249-1.312,20.733-6.78c7.484-7.492,9.188-18.785,4.25-28.102
		c-1.141-2.152-2.602-4.117-4.328-5.843c-4.508-4.539-10.492-7.039-16.859-7.05c-0.016,0-0.031-0.004-0.047-0.004
		c-6.39,0-12.413,2.504-16.96,7.05c-1.562,1.562-4.094,1.562-5.656,0s-1.562-4.093,0-5.656c6.055-6.059,14.086-9.395,22.616-9.395
		c0.023,0,0.039,0,0.062,0.004c8.516,0.016,16.508,3.355,22.5,9.402c2.289,2.273,4.219,4.886,5.734,7.742
		c6.602,12.441,4.328,27.507-5.656,37.506C332.608,284.633,324.343,287.984,315.859,287.992z"/>
	<path style="fill:#3A3847;" d="M271.993,284.312c-2.211,0-4-1.789-4-4V155.996c0-2.211,1.789-4,4-4s4,1.789,4,4v124.316
		C275.993,282.523,274.204,284.312,271.993,284.312z"/>
	<path style="fill:#3A3847;" d="M283.993,255.993c-10.352,0-15.367-9.793-15.578-10.211c-0.984-1.976-0.188-4.378,1.789-5.367
		c1.977-0.973,4.352-0.195,5.359,1.77c0.062,0.121,3.094,5.808,8.43,5.808c2.211,0,4,1.789,4,4S286.204,255.993,283.993,255.993z"/>
	<path style="fill:#3A3847;" d="M259.993,255.993c-2.211,0-4-1.789-4-4s1.789-4,4-4c5.359,0,8.305-5.703,8.328-5.761
		c0.977-1.98,3.391-2.805,5.352-1.828c1.984,0.969,2.805,3.367,1.836,5.351C275.298,246.173,270.368,255.993,259.993,255.993z"/>
	<path style="fill:#3A3847;" d="M291.993,207.994c-18.984,0-24-13.082-24-20c0-2.211,1.789-4,4-4c2.203,0,3.984,1.777,4,3.973
		c0.023,1.27,0.695,12.027,16,12.027c2.21,0,3.999,1.789,3.999,4S294.203,207.994,291.993,207.994z"/>
	<path style="fill:#3A3847;" d="M251.993,207.994c-2.21,0-3.999-1.789-3.999-4c0-2.21,1.789-4,3.999-4
		c15.742,0,15.922-11.512,15.922-12c0-2.211,1.789-4,4-4s4,1.789,4,4C275.915,194.913,270.915,207.994,251.993,207.994z"/>
	<path style="fill:#3A3847;" d="M95.998,455.987h-7.999c-2.211,0-4-1.789-4-4s1.789-4,4-4h7.999c2.211,0,4,1.789,4,4
		S98.209,455.987,95.998,455.987z"/>
	<path style="fill:#3A3847;" d="M95.998,471.986h-7.999c-2.211,0-4-1.789-4-3.999c0-2.211,1.789-4,4-4h7.999c2.211,0,4,1.789,4,4
		C99.998,470.197,98.209,471.986,95.998,471.986z"/>
</g>
<g style="opacity:0.3;">
	<rect x="151.993" y="52.003" style="fill:#FFFFFF;" width="7.999" height="31.999"/>
</g>
<g style="opacity:0.2;">
	<rect x="391.993" y="52.003" width="8" height="31.999"/>
</g>
<g style="opacity:0.3;">
	<rect x="103.993" y="435.983" width="47.999" height="8"/>
</g>
<g>
</g>
<g>
</g>
<g>
</g>
<g>
</g>
<g>
</g>
<g>
</g>
<g>
</g>
<g>
</g>
<g>
</g>
<g>
</g>
<g>
</g>
<g>
</g>
<g>
</g>
<g>
</g>
<g>
</g>
</svg>
